<svg id="Layer_1" data-name="Layer 1" xmlns="http://www.w3.org/2000/svg" viewBox="0 0 128 128"><title>Artboard 9</title><path d="M53.621,65.1l0,0,0,0a5.451,5.451,0,1,0-7.709-7.708l-.006.006a5.446,5.446,0,0,0,0,7.708l0,0,0,0a5.438,5.438,0,0,0,7.7.006Zm-2.348-2.36-.006.006a2.134,2.134,0,0,1-3,0l0,0a2.114,2.114,0,1,1,3,0Z" style="fill:#231916"/><path d="M78.243,55.789a5.439,5.439,0,0,0-3.857,1.6l0,0a5.438,5.438,0,0,0-.009,7.7l.006.006,0,0,0,0a5.438,5.438,0,0,0,7.7.006l.006-.006,0,0,0,0a5.452,5.452,0,0,0-3.858-9.306Zm1.5,6.953-.006.006a2.134,2.134,0,0,1-2.995,0l-.006-.006a2.134,2.134,0,0,1,0-2.995l0,0,0,0a2.12,2.12,0,0,1,3,2.995Z" style="fill:#231916"/><path d="M74.813,73.226H53.2A1.67,1.67,0,0,0,51.531,74.9a12.476,12.476,0,0,0,24.951,0A1.67,1.67,0,0,0,74.813,73.226Zm-4.345,8.131a9.139,9.139,0,0,1-15.446-4.793h17.97A9.113,9.113,0,0,1,70.468,81.357Z" style="fill:#231916"/><path d="M109.327,46.817a11.434,11.434,0,0,0-4.277-2.384c-3.088-.94-6.79-1.684-10.32-2.393-1.588-.319-3.141-.631-4.606-.956l-5.8-1.287-1.237-2.1-8.977-15.23h0A11.464,11.464,0,0,0,69.921,18.2,11.763,11.763,0,0,0,64.1,16.6a11.643,11.643,0,0,0-5.857,1.5,11.51,11.51,0,0,0-4.263,4.233L43.688,39.8,24.115,44.14v0a11.463,11.463,0,0,0-5.4,2.667,11.763,11.763,0,0,0-3.328,5.014,11.64,11.64,0,0,0-.412,6.013,11.506,11.506,0,0,0,2.707,5.405l13.443,15.2-1.9,19.827a11.428,11.428,0,0,0,.849,6.091,11.83,11.83,0,0,0,9.2,6.951,11.462,11.462,0,0,0,6.134-.883l18.608-8.085,18.6,8.08v0a11.451,11.451,0,0,0,5.687.92,11.791,11.791,0,0,0,9.633-6.952,11.493,11.493,0,0,0,.9-5.717L96.886,78.438l13.443-15.2a11.5,11.5,0,0,0,2.412-4.292,11.728,11.728,0,0,0-3.415-12.126Zm.233,11.161a8.188,8.188,0,0,1-1.721,3.053L93.916,76.776l-.479.542.068.716,2.012,20.948a8.2,8.2,0,0,1-.635,4.074,8.327,8.327,0,0,1-2.777,3.415,8.433,8.433,0,0,1-4.117,1.556,8.148,8.148,0,0,1-4.045-.659h-.006L64.665,99,64,98.711,63.341,99l-19.27,8.373a8.176,8.176,0,0,1-4.374.635,8.341,8.341,0,0,1-3.933-1.634,8.461,8.461,0,0,1-2.642-3.348,8.135,8.135,0,0,1-.6-4.354l.006-.058,1.976-20.579.069-.716-.479-.542L20.174,61.032a8.175,8.175,0,0,1-1.925-3.84,8.33,8.33,0,0,1,.3-4.306,8.424,8.424,0,0,1,2.376-3.593,8.134,8.134,0,0,1,3.832-1.884l.039-.013,20.319-4.51.707-.157.369-.625,10.665-18.1a8.2,8.2,0,0,1,3.038-3.021,8.325,8.325,0,0,1,4.187-1.066,8.416,8.416,0,0,1,4.161,1.145,8.158,8.158,0,0,1,2.979,3.043l.013.019,8.988,15.25L81.825,42.1l.369.625.707.157,6.506,1.444c1.448.321,3.042.642,4.671.969,3.449.693,7.065,1.42,10.007,2.315a8.126,8.126,0,0,1,3.038,1.692,8.44,8.44,0,0,1,2.437,8.671Z" style="fill:#231916"/></svg>